<mxfile host="app.diagrams.net" modified="2023-12-08T19:16:19.322Z" agent="Mozilla/5.0 (Windows NT 10.0; Win64; x64) AppleWebKit/537.36 (KHTML, like Gecko) Chrome/119.0.0.0 Safari/537.36" etag="IHbOn4Th84Jz77ofwj6e" version="22.1.7" type="github">
  <diagram name="Halaman-1" id="tfu84iD6Q-KbrGvrIhdy">
    <mxGraphModel dx="2150" dy="820" grid="1" gridSize="10" guides="1" tooltips="1" connect="1" arrows="1" fold="1" page="1" pageScale="1" pageWidth="827" pageHeight="1169" math="0" shadow="0">
      <root>
        <mxCell id="0" />
        <mxCell id="1" parent="0" />
        <mxCell id="r1Lg7hQq3FBmet4zmhlR-9" value="" style="edgeStyle=orthogonalEdgeStyle;rounded=0;orthogonalLoop=1;jettySize=auto;html=1;" parent="1" source="r1Lg7hQq3FBmet4zmhlR-1" target="r1Lg7hQq3FBmet4zmhlR-2" edge="1">
          <mxGeometry relative="1" as="geometry" />
        </mxCell>
        <mxCell id="r1Lg7hQq3FBmet4zmhlR-1" value="Start" style="ellipse;whiteSpace=wrap;html=1;" parent="1" vertex="1">
          <mxGeometry x="-10" y="160" width="120" height="60" as="geometry" />
        </mxCell>
        <mxCell id="r1Lg7hQq3FBmet4zmhlR-10" value="" style="edgeStyle=orthogonalEdgeStyle;rounded=0;orthogonalLoop=1;jettySize=auto;html=1;" parent="1" source="r1Lg7hQq3FBmet4zmhlR-2" target="r1Lg7hQq3FBmet4zmhlR-3" edge="1">
          <mxGeometry relative="1" as="geometry" />
        </mxCell>
        <mxCell id="r1Lg7hQq3FBmet4zmhlR-2" value="Studi Literatur" style="rounded=1;whiteSpace=wrap;html=1;" parent="1" vertex="1">
          <mxGeometry x="139" y="160" width="120" height="60" as="geometry" />
        </mxCell>
        <mxCell id="r1Lg7hQq3FBmet4zmhlR-11" value="" style="edgeStyle=orthogonalEdgeStyle;rounded=0;orthogonalLoop=1;jettySize=auto;html=1;" parent="1" source="r1Lg7hQq3FBmet4zmhlR-3" target="r1Lg7hQq3FBmet4zmhlR-4" edge="1">
          <mxGeometry relative="1" as="geometry" />
        </mxCell>
        <mxCell id="r1Lg7hQq3FBmet4zmhlR-3" value="Rumusan Masalah" style="rounded=1;whiteSpace=wrap;html=1;" parent="1" vertex="1">
          <mxGeometry x="139" y="240" width="120" height="60" as="geometry" />
        </mxCell>
        <mxCell id="r1Lg7hQq3FBmet4zmhlR-12" value="" style="edgeStyle=orthogonalEdgeStyle;rounded=0;orthogonalLoop=1;jettySize=auto;html=1;" parent="1" source="r1Lg7hQq3FBmet4zmhlR-4" target="r1Lg7hQq3FBmet4zmhlR-5" edge="1">
          <mxGeometry relative="1" as="geometry" />
        </mxCell>
        <mxCell id="r1Lg7hQq3FBmet4zmhlR-4" value="Pengumpulan Data" style="rounded=1;whiteSpace=wrap;html=1;" parent="1" vertex="1">
          <mxGeometry x="279" y="240" width="120" height="60" as="geometry" />
        </mxCell>
        <mxCell id="r1Lg7hQq3FBmet4zmhlR-13" value="" style="edgeStyle=orthogonalEdgeStyle;rounded=0;orthogonalLoop=1;jettySize=auto;html=1;" parent="1" source="r1Lg7hQq3FBmet4zmhlR-5" target="r1Lg7hQq3FBmet4zmhlR-6" edge="1">
          <mxGeometry relative="1" as="geometry" />
        </mxCell>
        <mxCell id="r1Lg7hQq3FBmet4zmhlR-5" value="Identifikasi Cluster" style="rounded=1;whiteSpace=wrap;html=1;" parent="1" vertex="1">
          <mxGeometry x="419" y="240" width="120" height="60" as="geometry" />
        </mxCell>
        <mxCell id="r1Lg7hQq3FBmet4zmhlR-14" value="" style="edgeStyle=orthogonalEdgeStyle;rounded=0;orthogonalLoop=1;jettySize=auto;html=1;" parent="1" source="r1Lg7hQq3FBmet4zmhlR-6" target="r1Lg7hQq3FBmet4zmhlR-7" edge="1">
          <mxGeometry relative="1" as="geometry" />
        </mxCell>
        <mxCell id="r1Lg7hQq3FBmet4zmhlR-6" value="Pengolahan Data" style="rounded=1;whiteSpace=wrap;html=1;" parent="1" vertex="1">
          <mxGeometry x="560" y="240" width="120" height="60" as="geometry" />
        </mxCell>
        <mxCell id="r1Lg7hQq3FBmet4zmhlR-15" value="" style="edgeStyle=orthogonalEdgeStyle;rounded=0;orthogonalLoop=1;jettySize=auto;html=1;" parent="1" source="r1Lg7hQq3FBmet4zmhlR-7" target="r1Lg7hQq3FBmet4zmhlR-8" edge="1">
          <mxGeometry relative="1" as="geometry" />
        </mxCell>
        <mxCell id="r1Lg7hQq3FBmet4zmhlR-7" value="Hasil" style="rounded=1;whiteSpace=wrap;html=1;" parent="1" vertex="1">
          <mxGeometry x="560" y="320" width="120" height="60" as="geometry" />
        </mxCell>
        <mxCell id="r1Lg7hQq3FBmet4zmhlR-8" value="Finish" style="ellipse;whiteSpace=wrap;html=1;" parent="1" vertex="1">
          <mxGeometry x="700" y="320" width="120" height="60" as="geometry" />
        </mxCell>
      </root>
    </mxGraphModel>
  </diagram>
</mxfile>
